<svg width="10" height="7" viewBox="0 0 10 7" fill="none" xmlns="http://www.w3.org/2000/svg">
<path fill-rule="evenodd" clip-rule="evenodd" d="M9.7624 0.798368L9.28113 0.263702C9.11428 0.0879298 8.91953 0 8.69714 0C8.47025 0 8.27771 0.0879298 8.11937 0.263702L5 3.72814L1.88063 0.263789C1.72229 0.0880173 1.52975 8.74923e-05 1.30294 8.74923e-05C1.08047 8.74923e-05 0.885722 0.0880173 0.718866 0.263789L0.243902 0.798455C0.0813008 0.978952 0 1.19523 0 1.44712C0 1.70374 0.0813796 1.91757 0.243902 2.08862L4.42231 6.72912C4.5764 6.90971 4.76886 7 5 7C5.22681 7 5.42147 6.90971 5.58399 6.72912L9.7624 2.08862C9.92075 1.91276 10 1.69893 10 1.44712C10 1.19996 9.92075 0.983764 9.7624 0.798368Z" fill="black"/>
</svg>
