<svg width="37" height="25" viewBox="0 0 37 25" fill="none" xmlns="http://www.w3.org/2000/svg">
<path fill-rule="evenodd" clip-rule="evenodd" d="M11.6734 24.8231L19.1906 24.9587C19.2026 24.9587 19.2265 24.9587 19.2265 24.9764C23.4126 25.0531 27.4912 24.8113 31.6654 24.5106C34.9964 24.2807 35.7858 21.8986 36.1984 19.0566C36.7127 15.625 36.8263 12.1521 36.5572 8.69693C36.5444 8.53379 36.5319 8.36919 36.5194 8.20355C36.2692 4.89713 35.9879 1.1803 32.0242 0.49528C31.181 0.347874 30.3198 0.218157 29.4646 0.194572C21.3674 -0.0648618 13.1984 -0.12972 5.08321 0.424525C2.67915 0.577827 1.12429 1.98113 0.729591 4.33372C0.029903 8.52594 -0.113623 12.8302 0.257152 17.0578C0.26178 17.1095 0.266403 17.1614 0.271041 17.2134C0.536104 20.1873 0.845832 23.6623 4.41342 24.3809C6.3341 24.7748 8.28965 24.7905 10.2489 24.8063C10.7237 24.8101 11.1987 24.8139 11.6734 24.8231ZM18.7294 15.5231C17.4155 16.2676 16.0987 17.0139 14.7712 17.7653V7.16391C16.2009 7.9725 17.6206 8.77738 19.0418 9.58308C20.7295 10.5399 22.4193 11.4979 24.1303 12.4646C22.3225 13.487 20.5288 14.5035 18.7294 15.5231Z" fill="#FF0000"/>
</svg>
